<?xml version="1.0" encoding="iso-8859-1"?>
<!-- Generator: Adobe Illustrator 19.0.0, SVG Export Plug-In . SVG Version: 6.00 Build 0)  -->
<svg version="1.1" id="Capa_1" xmlns="http://www.w3.org/2000/svg" xmlns:xlink="http://www.w3.org/1999/xlink" x="0px" y="0px"
	 viewBox="0 0 464 464" style="enable-background:new 0 0 464 464;" xml:space="preserve">
<path style="fill:#666666;" d="M0,376h464v48H0V376z"/>
<path style="fill:#283438;" d="M24,392h64v16H24V392z"/>
<path style="fill:#00FF00;" d="M336,376h16v16h-16V376z"/>
<path style="fill:#FF0000;" d="M368,376h16v16h-16V376z"/>
<path style="fill:#29ABE2;" d="M400,376h16v16h-16V376z"/>
<path style="fill:#4D4D4D;" d="M184,376h96v24h-96V376z"/>
<path style="fill:#808080;" d="M16,40h432v336H16V40z"/>
<path style="fill:#29ABE2;" d="M40,88h384v256H40V88z"/>
<path style="fill:#E6E6E6;" d="M72,120h32v32H72V120z"/>
<path style="fill:#556180;" d="M72,184h32v32H72V184z"/>
<path style="fill:#F4BF1A;" d="M72,248h32v32H72V248z"/>
<path style="fill:#FF931E;" d="M136,120h32v32h-32V120z"/>
<path style="fill:#24AE5F;" d="M136,184h32v32h-32V184z"/>
<path style="fill:#29485A;" d="M136,248h32v32h-32V248z"/>
<path style="fill:#7AC943;" d="M200,120h32v32h-32V120z"/>
<path style="fill:#283438;" d="M224,56h16v16h-16V56z"/>
<path style="fill:#CCCCCC;" d="M40,312h384v32H40V312z"/>
<path style="fill:#0071BC;" d="M40,312h56v32H40V312z"/>
<g>
</g>
<g>
</g>
<g>
</g>
<g>
</g>
<g>
</g>
<g>
</g>
<g>
</g>
<g>
</g>
<g>
</g>
<g>
</g>
<g>
</g>
<g>
</g>
<g>
</g>
<g>
</g>
<g>
</g>
</svg>
