<svg height="512pt" viewBox="0 0 512 512" width="512pt" xmlns="http://www.w3.org/2000/svg"><path d="m512 256c0 141.386719-114.613281 256-256 256s-256-114.613281-256-256 114.613281-256 256-256 256 114.613281 256 256zm0 0" fill="#ff6f61"/><path d="m346.085938 116.863281v18l-17.121094-18h-211.964844v278.273438l115.808594 115.804687c7.640625.6875 15.371094 1.058594 23.191406 1.058594 141.386719 0 256-114.613281 256-256 0-7.820312-.371094-15.550781-1.058594-23.191406l-115.941406-115.945313zm0 0" fill="#ff4c3b"/><path d="m117 116.863281v278.273438h105.980469l48.917969-139.136719-48.917969-139.136719zm0 0" fill="#bcf7fc"/><path d="m222.980469 116.863281h105.984375v278.273438h-105.984375zm0 0" fill="#8de5ff"/><path d="m346.085938 225.238281v145.441407c0 13.484374 10.96875 24.457031 24.457031 24.457031 13.484375 0 24.457031-10.972657 24.457031-24.457031v-145.4375zm0 0" fill="#375798"/><path d="m346.085938 116.863281v32.605469l24.457031 24.457031 24.457031-24.453125v-32.609375zm0 0" fill="#bcf7fc"/><path d="m346.085938 149.472656v75.765625c0 13.507813 10.949218 24.457031 24.457031 24.457031 13.507812 0 24.453125-10.945312 24.457031-24.453124v-75.769532zm0 0" fill="#8160ff"/><path d="m271.898438 227.195312-32.613282-65.21875c0 9.003907-7.296875 16.304688-16.304687 16.304688l-16.304688 48.914062zm0 0" fill="#0e3e4c"/><path d="m174.066406 227.195312 32.609375-65.21875c.003907 9.003907 7.300781 16.304688 16.304688 16.304688v48.914062zm0 0" fill="#375798"/><path d="m272.835938 249.695312-.136719-.265624 17-40.460938-3.914063-3.875c-3.484375-3.445312-5.734375-8.210938-5.734375-12.140625v-43.480469h-40.761719v45.113282c0 9.003906-7.300781 16.304687-16.304687 16.304687l-32.613281 71.417969zm0 0" fill="#5c5ccc"/><path d="m222.980469 210.890625c-9.003907 0-16.304688-7.300781-16.304688-16.304687v-45.113282h-40.761719v43.480469c0 3.929687-2.25 8.695313-5.734374 12.140625l-3.914063 3.875 17 40.457031-.132813.269531 49.847657 32.609376zm0 0" fill="#8160ff"/><path d="m272.835938 249.695312h-49.851563l-32.613281 56.417969 32.613281 56.414063h73.371094v-32.609375c0-21.460938-4.757813-42.046875-14.140625-61.179688zm0 0" fill="#c44e46"/><path d="m173.132812 249.695312-9.382812 19.039063c-9.382812 19.136719-14.140625 39.71875-14.140625 61.179687v32.613282h73.371094v-112.832032zm0 0" fill="#ff4c3b"/></svg>